# xmcd
#
# Track frame offsets:
#	150
#	20776
#	42677
#	59927
#	71552
#	88802
#	109652
#	134553
#	159004
#	172805
#	193805
#
# Disc length: 2890 seconds
#
# Revision: 0
# Processed by: cddbd v1.5.2PL0 Copyright (c) Steve Scherf et al.
# Submitted via: dBpowerAMP V4.0
#
DISCID=a20b480b
DTITLE=Medicine Crow and Preston - Extemporania
DYEAR=1900
DGENRE=Blues
TTITLE0=Escape Route
TTITLE1=Summer Rain
TTITLE2=Rout 18 To Oglala
TTITLE3=Train Bangalore
TTITLE4=You Make My Heart Smile
TTITLE5=Night Ride To Memphis
TTITLE6=Dervish
TTITLE7=Golden Gate Park
TTITLE8=The Last Voyage Of Saint Brendon
TTITLE9=Taking The Tower
TTITLE10=Walkin' Home
EXTD=Medicine Crow and Preston 2009
EXTT0=
EXTT1=
EXTT2=
EXTT3=
EXTT4=
EXTT5=
EXTT6=
EXTT7=
EXTT8=
EXTT9=
EXTT10=
PLAYORDER=
